<svg viewBox="0 0 46 52" fill="none" xmlns="http://www.w3.org/2000/svg">
<g filter="url(#filter0_f_542_12873)">
<mask id="path-1-inside-1_542_12873" fill="white">
<path fill-rule="evenodd" clip-rule="evenodd" d="M24.4681 20.8936V10L10 30.9362H20.8937V42L35.532 20.8936H24.4681Z"/>
</mask>
<path d="M24.4681 10H25.4681V6.79397L23.6454 9.43149L24.4681 10ZM24.4681 20.8936H23.4681V21.8936H24.4681V20.8936ZM10 30.9362L9.17733 30.3677L8.09339 31.9362H10V30.9362ZM20.8937 30.9362H21.8937V29.9362H20.8937V30.9362ZM20.8937 42H19.8937V45.1966L21.7154 42.5699L20.8937 42ZM35.532 20.8936L36.3537 21.4635L37.4425 19.8936H35.532V20.8936ZM23.4681 10V20.8936H25.4681V10H23.4681ZM10.8227 31.5047L25.2908 10.5685L23.6454 9.43149L9.17733 30.3677L10.8227 31.5047ZM20.8937 29.9362H10V31.9362H20.8937V29.9362ZM21.8937 42V30.9362H19.8937V42H21.8937ZM34.7103 20.3237L20.072 41.4301L21.7154 42.5699L36.3537 21.4635L34.7103 20.3237ZM24.4681 21.8936H35.532V19.8936H24.4681V21.8936Z" fill="#14D97B" mask="url(#path-1-inside-1_542_12873)"/>
</g>
<g filter="url(#filter1_f_542_12873)">
<mask id="path-3-inside-2_542_12873" fill="white">
<path fill-rule="evenodd" clip-rule="evenodd" d="M24.4681 20.8936V10L10 30.9362H20.8937V42L35.532 20.8936H24.4681Z"/>
</mask>
<path d="M24.4681 10H25.4681V6.79397L23.6454 9.43149L24.4681 10ZM24.4681 20.8936H23.4681V21.8936H24.4681V20.8936ZM10 30.9362L9.17733 30.3677L8.09339 31.9362H10V30.9362ZM20.8937 30.9362H21.8937V29.9362H20.8937V30.9362ZM20.8937 42H19.8937V45.1966L21.7154 42.5699L20.8937 42ZM35.532 20.8936L36.3537 21.4635L37.4425 19.8936H35.532V20.8936ZM23.4681 10V20.8936H25.4681V10H23.4681ZM10.8227 31.5047L25.2908 10.5685L23.6454 9.43149L9.17733 30.3677L10.8227 31.5047ZM20.8937 29.9362H10V31.9362H20.8937V29.9362ZM21.8937 42V30.9362H19.8937V42H21.8937ZM34.7103 20.3237L20.072 41.4301L21.7154 42.5699L36.3537 21.4635L34.7103 20.3237ZM24.4681 21.8936H35.532V19.8936H24.4681V21.8936Z" fill="#14D97B" mask="url(#path-3-inside-2_542_12873)"/>
</g>
<mask id="path-5-inside-3_542_12873" fill="white">
<path fill-rule="evenodd" clip-rule="evenodd" d="M24.4681 20.8936V10L10 30.9362H20.8937V42L35.532 20.8936H24.4681Z"/>
</mask>
<path d="M24.4681 10H25.4681V6.79397L23.6454 9.43149L24.4681 10ZM24.4681 20.8936H23.4681V21.8936H24.4681V20.8936ZM10 30.9362L9.17733 30.3677L8.09339 31.9362H10V30.9362ZM20.8937 30.9362H21.8937V29.9362H20.8937V30.9362ZM20.8937 42H19.8937V45.1966L21.7154 42.5699L20.8937 42ZM35.532 20.8936L36.3537 21.4635L37.4425 19.8936H35.532V20.8936ZM23.4681 10V20.8936H25.4681V10H23.4681ZM10.8227 31.5047L25.2908 10.5685L23.6454 9.43149L9.17733 30.3677L10.8227 31.5047ZM20.8937 29.9362H10V31.9362H20.8937V29.9362ZM21.8937 42V30.9362H19.8937V42H21.8937ZM34.7103 20.3237L20.072 41.4301L21.7154 42.5699L36.3537 21.4635L34.7103 20.3237ZM24.4681 21.8936H35.532V19.8936H24.4681V21.8936Z" fill="#14DD7C" mask="url(#path-5-inside-3_542_12873)"/>
<defs>
<filter id="filter0_f_542_12873" x="0" y="0" width="45.5312" height="52" filterUnits="userSpaceOnUse" color-interpolation-filters="sRGB">
<feFlood flood-opacity="0" result="BackgroundImageFix"/>
<feBlend mode="normal" in="SourceGraphic" in2="BackgroundImageFix" result="shape"/>
<feGaussianBlur stdDeviation="5" result="effect1_foregroundBlur_542_12873"/>
</filter>
<filter id="filter1_f_542_12873" x="0" y="0" width="45.5312" height="52" filterUnits="userSpaceOnUse" color-interpolation-filters="sRGB">
<feFlood flood-opacity="0" result="BackgroundImageFix"/>
<feBlend mode="normal" in="SourceGraphic" in2="BackgroundImageFix" result="shape"/>
<feGaussianBlur stdDeviation="5" result="effect1_foregroundBlur_542_12873"/>
</filter>
</defs>
</svg>
