<svg width="24" height="24" viewBox="0 0 24 24" fill="currentColor" xmlns="http://www.w3.org/2000/svg">
<g clip-path="url(#clip0_556_2132)">
<path d="M17.8349 16.8375C17.6868 16.8378 17.5402 16.8088 17.4033 16.7523C17.2665 16.6957 17.1421 16.6127 17.0374 16.508C16.9328 16.4033 16.8498 16.279 16.7932 16.1422C16.7367 16.0053 16.7077 15.8587 16.7079 15.7106V8.88392L6.96313 18.6287C6.75215 18.8397 6.46601 18.9582 6.16764 18.9582C5.86927 18.9582 5.58312 18.8397 5.37214 18.6287C5.16116 18.4178 5.04264 18.1316 5.04264 17.8332C5.04264 17.5349 5.16116 17.2487 5.37214 17.0377L15.117 7.29293L8.28896 7.29161C7.99007 7.29161 7.70343 7.17288 7.49208 6.96153C7.28074 6.75019 7.16201 6.46354 7.162 6.16466C7.16201 5.86577 7.28074 5.57913 7.49208 5.36778C7.70343 5.15644 7.99007 5.03771 8.28896 5.03771L17.8349 5.03771C17.983 5.03745 18.1296 5.06642 18.2665 5.12297C18.4033 5.17951 18.5276 5.26251 18.6323 5.36721C18.737 5.47191 18.82 5.59624 18.8766 5.73309C18.9331 5.86993 18.9621 6.01659 18.9618 6.16466L18.9618 15.7106C18.9621 15.8587 18.9331 16.0053 18.8766 16.1422C18.82 16.279 18.737 16.4033 18.6323 16.508C18.5276 16.6127 18.4033 16.6957 18.2665 16.7523C18.1296 16.8088 17.983 16.8378 17.8349 16.8375Z" />
</g>
<defs>
<clipPath id="clip0_556_2132">
<rect width="24" height="24" />
</clipPath>
</defs>
</svg>
