<svg viewBox="0 0 49 49" fill="currentColor" xmlns="http://www.w3.org/2000/svg">
<g clip-path="url(#clip0_4024_560)">
<path d="M41.9299 21.8221C41.3821 21.6554 40.8783 22.1854 41.0684 22.7248L43.7991 30.4626C44.1427 31.4376 43.4193 32.46 42.386 32.46C41.7689 32.46 41.1902 32.0761 40.9729 31.4609C34.6135 13.4428 36.4147 18.5345 34.1219 12.0738H39.2536C39.5823 12.0738 39.8501 12.3416 39.8501 12.6712V13.5945C39.8501 13.9242 39.5823 14.192 39.2536 14.192C38.5897 14.192 38.0269 14.6237 37.8302 15.2221C37.5294 16.1303 38.1544 17.0925 39.1122 17.182C40.857 17.3558 42.8467 15.8078 42.8467 13.5945V12.6712C42.8467 10.6862 41.2376 9.07715 39.2527 9.07715H31.9999C30.967 9.07715 30.2422 10.1016 30.5878 11.0764L31.9896 15.0263H20.2692L19.2213 12.0738H20.684C21.4903 12.0738 22.1842 11.4548 22.2226 10.6494C22.2638 9.78884 21.5783 9.07715 20.7262 9.07715H17.1003C16.0674 9.07715 15.3416 10.1016 15.6881 11.0764L17.5825 16.4179L7.42684 31.901C6.85131 32.7721 5.59329 32.7942 4.9818 31.9806C4.6091 31.488 4.56602 30.795 4.92561 30.25L10.091 22.4206C10.3748 21.9906 10.0609 21.4136 9.54582 21.426C4.78224 21.5402 0.5 25.403 0.5 30.6761C0.5 35.775 4.64843 39.9235 9.7464 39.9235C14.216 39.9235 17.9543 36.7358 18.8093 32.5143C24.8362 32.5143 24.4316 32.5237 24.618 32.4909C24.9982 32.4216 25.3316 32.21 25.5535 31.9132C25.5975 31.8542 25.0806 32.6342 33.6359 19.6664L34.6903 22.6368C31.7808 24.2952 29.8546 27.4847 30.0166 31.1003C30.2319 35.8752 34.1097 39.7305 38.8856 39.916C44.1502 40.121 48.5 35.8968 48.5 30.6761C48.5 26.4593 45.6832 22.9645 41.9299 21.8221ZM12.5304 29.5177L14.4651 26.5848C15.1768 27.4042 15.6787 28.4099 15.8866 29.5177H12.5304ZM18.9207 29.5177C18.651 27.3705 17.6415 25.4499 16.1573 24.0199L18.8383 19.9558L22.2319 29.5177H18.9207ZM24.7594 27.6805L21.332 18.023H31.1309L24.7594 27.6805Z" />
</g>
<defs>
<clipPath id="clip0_4024_560">
<rect width="48" height="48" transform="translate(0.5 0.5)"/>
</clipPath>
</defs>
</svg>
