<svg viewBox="0 0 160 54" fill="none" xmlns="http://www.w3.org/2000/svg">
<path d="M141.952 10.1243H126.6V0.742798H159.249V8.50446L149.683 23.6453V23.8253H159.991V33.2068H126.375L141.952 10.1243Z" fill="#14DD7C"/>
<path d="M94.3516 33.2068V0.742798H120.086L105.664 23.8703H122.186V33.2068H94.3516Z" fill="#14DD7C"/>
<path d="M67.0874 33.9039C62.288 33.9039 58.1109 33.2139 54.5563 31.8341C51.0017 30.4542 48.2495 28.4969 46.2997 25.9622C44.3499 23.4275 43.375 20.4353 43.375 16.9857V16.9407C43.375 13.491 44.3499 10.4989 46.2997 7.96414C48.2495 5.41442 51.0017 3.44963 54.5563 2.06978C58.1109 0.689927 62.288 0 67.0874 0C71.8869 0 76.0565 0.689927 79.5961 2.06978C83.1507 3.44963 85.9029 5.41442 87.8527 7.96414C89.8175 10.4989 90.7999 13.491 90.7999 16.9407V16.9857C90.7999 20.4353 89.8175 23.4275 87.8527 25.9622C85.9029 28.4969 83.1507 30.4542 79.5961 31.8341C76.0565 33.2139 71.8869 33.9039 67.0874 33.9039ZM67.0874 24.4324C69.1872 24.4324 71.002 24.1399 72.5319 23.555C74.0767 22.955 75.2616 22.0926 76.0865 20.9677C76.9264 19.8429 77.3463 18.5155 77.3463 16.9857V16.9407C77.3463 15.4108 76.9264 14.091 76.0865 12.9811C75.2616 11.8562 74.0767 10.9938 72.5319 10.3939C71.002 9.79395 69.1872 9.49398 67.0874 9.49398C64.9727 9.49398 63.1429 9.79395 61.598 10.3939C60.0682 10.9938 58.8908 11.8562 58.0659 12.9811C57.241 14.091 56.8286 15.4108 56.8286 16.9407V16.9857C56.8286 18.5155 57.241 19.8429 58.0659 20.9677C58.8908 22.0926 60.0682 22.955 61.598 23.555C63.1429 24.1399 64.9727 24.4324 67.0874 24.4324Z" fill="#14DD7C"/>
<path d="M6.65928 33.2068V24.9727H24.8823C25.8422 24.9727 26.5771 24.7777 27.0871 24.3878C27.612 23.9828 27.8745 23.4054 27.8745 22.6554V22.6329C27.8745 22.108 27.7545 21.673 27.5145 21.3281C27.2746 20.9831 26.9221 20.7281 26.4571 20.5632C26.0072 20.3982 25.4523 20.3157 24.7923 20.3157H6.65928V13.4089H23.6225C24.5824 13.4089 25.3173 13.2215 25.8272 12.8465C26.3522 12.4715 26.6146 11.9316 26.6146 11.2267V11.1817C26.6146 10.4767 26.3672 9.93681 25.8722 9.56185C25.3923 9.17189 24.6948 8.97691 23.7799 8.97691H6.65928V0.742798H27.6945C30.2742 0.742798 32.449 1.05026 34.2188 1.6652C36.0036 2.26513 37.3535 3.15004 38.2684 4.31991C39.1983 5.47479 39.6632 6.88464 39.6632 8.54946V8.59445C39.6632 9.9743 39.3783 11.1592 38.8083 12.1491C38.2384 13.139 37.406 13.9489 36.3111 14.5788C35.2312 15.2087 33.9113 15.6587 32.3515 15.9287V16.0861C34.3013 16.3261 35.9286 16.7986 37.2335 17.5035C38.5533 18.1934 39.5432 19.0933 40.2032 20.2032C40.8781 21.3131 41.2156 22.6029 41.2156 24.0728V24.1178C41.2156 26.0826 40.6981 27.7399 39.6632 29.0897C38.6283 30.4396 37.121 31.467 35.1412 32.1719C33.1764 32.8618 30.7917 33.2068 27.987 33.2068H6.65928ZM0 33.2068V0.742798H12.9586V33.2068H0Z" fill="#14DD7C"/>
<path d="M155.252 48.8045C155.778 48.8045 156.236 48.8966 156.625 49.0809C157.017 49.2651 157.319 49.5251 157.53 49.8609C157.741 50.1937 157.846 50.58 157.846 51.0197C157.846 51.4595 157.741 51.8458 157.53 52.1786C157.319 52.5114 157.017 52.7699 156.625 52.9542C156.236 53.1384 155.778 53.2305 155.252 53.2305H151.633V46.5447H153.144V48.8045H155.252ZM155.167 52.0271C155.524 52.0271 155.803 51.9379 156.005 51.7596C156.21 51.5784 156.313 51.3317 156.313 51.0197C156.313 50.7077 156.21 50.4626 156.005 50.2843C155.803 50.103 155.524 50.0124 155.167 50.0124H153.144V52.0271H155.167ZM158.488 53.2305V46.5447H159.999V53.2305H158.488Z" fill="white"/>
<path d="M148.169 46.5447C148.692 46.5447 149.147 46.6369 149.533 46.8211C149.923 47.0053 150.221 47.2653 150.429 47.6011C150.637 47.9339 150.741 48.3187 150.741 48.7555C150.741 49.1923 150.637 49.5771 150.429 49.9099C150.221 50.2427 149.923 50.5012 149.533 50.6855C149.144 50.8697 148.689 50.9618 148.169 50.9618H146.034V53.2305H144.523V46.5447H148.169ZM148.089 49.7138C148.44 49.7138 148.713 49.6291 148.909 49.4597C149.108 49.2904 149.208 49.0556 149.208 48.7555C149.208 48.4554 149.108 48.2206 148.909 48.0513C148.713 47.8789 148.44 47.7927 148.089 47.7927H146.034V49.7138H148.089Z" fill="white"/>
<path d="M138.805 46.5447H143.685V47.8908H140.316V53.2305H138.805V46.5447Z" fill="white"/>
<path d="M131.683 51.7463L135.454 46.5447H137.428V53.2305H135.944V47.9532L132.124 53.2305H130.203V46.5447H131.683V51.7463Z" fill="white"/>
<path d="M127.522 53.2305H125.908L125.275 51.822H121.567L120.934 53.2305H119.32L122.445 46.5447H124.397L127.522 53.2305ZM123.421 47.7081L122.124 50.5919H124.722L123.421 47.7081Z" fill="white"/>
<path d="M118.598 46.5447V53.2305H117.082V47.8863H113.829C113.885 48.552 113.913 49.1745 113.913 49.7539C113.913 50.6037 113.839 51.2916 113.69 51.8176C113.542 52.3435 113.31 52.7313 112.995 52.9809C112.68 53.2305 112.269 53.3553 111.76 53.3553C111.549 53.3553 111.343 53.333 111.141 53.2884C110.942 53.2439 110.762 53.18 110.602 53.0968V51.8309C110.854 51.932 111.092 51.9825 111.315 51.9825C111.591 51.9825 111.814 51.8993 111.983 51.7329C112.156 51.5635 112.282 51.3005 112.362 50.944C112.445 50.5844 112.487 50.1149 112.487 49.5355C112.487 48.7213 112.423 47.7244 112.295 46.5447H118.598Z" fill="white"/>
<path d="M104.066 51.7463L107.836 46.5447H109.811V53.2305H108.327V47.9532L104.507 53.2305H102.586V46.5447H104.066V51.7463Z" fill="white"/>
<path d="M100.082 49.7182C100.575 49.8252 100.946 50.0243 101.196 50.3155C101.446 50.6037 101.57 50.9573 101.57 51.3763C101.57 51.7418 101.486 52.0642 101.316 52.3435C101.147 52.6199 100.896 52.8368 100.563 52.9943C100.23 53.1518 99.8247 53.2305 99.3463 53.2305H94.6484L95.1699 49.7985L94.6484 46.5447H99.1769C99.587 46.5447 99.9376 46.6101 100.229 46.7409C100.52 46.8716 100.741 47.0588 100.893 47.3025C101.047 47.5461 101.125 47.8358 101.125 48.1716C101.125 48.4985 101.04 48.8001 100.871 49.0764C100.701 49.3498 100.438 49.5637 100.082 49.7182ZM99.5914 48.39C99.5914 48.1731 99.5157 47.9978 99.3641 47.8641C99.2126 47.7303 99.0001 47.6635 98.7267 47.6635H96.2753L96.5294 49.2547H98.6643C98.9377 49.2547 99.1606 49.1774 99.3329 49.0229C99.5053 48.8684 99.5914 48.6574 99.5914 48.39ZM99.0298 52.1117C99.3478 52.1117 99.5944 52.0375 99.7697 51.8889C99.948 51.7373 100.037 51.5249 100.037 51.2515C100.037 50.9692 99.9346 50.7479 99.7296 50.5874C99.5246 50.424 99.2304 50.3423 98.8471 50.3423H96.5338L96.2664 52.1117H99.0298Z" fill="white"/>
<path d="M94.1465 53.2305H92.533L91.9001 51.822H88.1917L87.5588 53.2305H85.9453L89.0698 46.5447H91.022L94.1465 53.2305ZM90.0459 47.7081L88.7489 50.5919H91.3474L90.0459 47.7081Z" fill="white"/>
<path d="M83.9428 46.5447C84.4658 46.5447 84.9205 46.6369 85.3067 46.8211C85.696 47.0053 85.9946 47.2653 86.2026 47.6011C86.4106 47.9339 86.5146 48.3187 86.5146 48.7555C86.5146 49.1923 86.4106 49.5771 86.2026 49.9099C85.9946 50.2427 85.696 50.5012 85.3067 50.6855C84.9175 50.8697 84.4628 50.9618 83.9428 50.9618H81.8079V53.2305H80.2969V46.5447H83.9428ZM83.8626 49.7138C84.2132 49.7138 84.4866 49.6291 84.6827 49.4597C84.8818 49.2904 84.9814 49.0556 84.9814 48.7555C84.9814 48.4554 84.8818 48.2206 84.6827 48.0513C84.4866 47.8789 84.2132 47.7927 83.8626 47.7927H81.8079V49.7138H83.8626Z" fill="white"/>
<path d="M72.0938 53.2305V46.5447H78.9221V53.2305H77.4156V47.8863H73.6047V53.2305H72.0938Z" fill="white"/>
<path d="M63.7447 51.7819L66.1026 46.5447H68.4292V53.2305H66.9896V47.8997L64.5203 53.2305H62.9558L60.4865 47.922V53.2305H59.0469V46.5447H61.3735L63.7447 51.7819Z" fill="white"/>
<path d="M53.7604 50.4671L53.5197 51.9736H57.8966V53.2305H51.875L52.3965 49.8876L51.875 46.5447H57.8521V47.8017H53.5197L53.7604 49.3082H57.6203V50.4671H53.7604Z" fill="white"/>
<path d="M51.3731 53.2305H49.7596L49.1267 51.822H45.4183L44.7854 53.2305H43.1719L46.2964 46.5447H48.2486L51.3731 53.2305ZM47.2725 47.7081L45.9754 50.5919H48.574L47.2725 47.7081Z" fill="white"/>
<path d="M40.9486 51.8889V46.5447H42.4596V53.2305H31.8203V46.5447H33.3313V51.8889H36.3845V46.5447H37.8954V51.8889H40.9486Z" fill="white"/>
<path d="M28.926 46.5447H30.4414V53.2305H28.926V50.6409C28.5872 50.7805 28.2262 50.8875 27.8429 50.9618C27.4625 51.0331 27.0792 51.0688 26.6929 51.0688C25.754 51.0688 25.0378 50.8296 24.5446 50.3512C24.0513 49.8698 23.8047 49.1745 23.8047 48.2652V46.5447H25.3157V48.1449C25.3157 48.6708 25.4598 49.0675 25.748 49.3349C26.0362 49.6024 26.4641 49.7361 27.0317 49.7361C27.623 49.7361 28.2544 49.6142 28.926 49.3706V46.5447Z" fill="white"/>
<path d="M19.5686 50.3378L21.7526 46.5447H23.3973L19.5196 53.2305H17.8749L18.7306 51.7552L15.6953 46.5447H17.3668L19.5686 50.3378Z" fill="white"/>
<path d="M14.9337 46.5447V53.2305H13.4182V47.8863H10.1645C10.221 48.552 10.2492 49.1745 10.2492 49.7539C10.2492 50.6037 10.1749 51.2916 10.0263 51.8176C9.87775 52.3435 9.64598 52.7313 9.331 52.9809C9.01603 53.2305 8.60448 53.3553 8.09636 53.3553C7.88539 53.3553 7.67888 53.333 7.47682 53.2884C7.27773 53.2439 7.09796 53.18 6.9375 53.0968V51.8309C7.19007 51.932 7.42779 51.9825 7.65065 51.9825C7.92699 51.9825 8.14985 51.8993 8.31922 51.7329C8.49157 51.5635 8.61785 51.3005 8.69808 50.944C8.78128 50.5844 8.82288 50.1149 8.82288 49.5355C8.82288 48.7213 8.759 47.7244 8.63123 46.5447H14.9337Z" fill="white"/>
<path d="M3.87328 50.3379L6.0573 46.5449H7.702L3.82425 53.2306H2.17956L3.03533 51.7553L0 46.5449H1.67144L3.87328 50.3379Z" fill="white"/>
</svg>
