<svg viewBox="0 0 49 48" fill="currentColor" xmlns="http://www.w3.org/2000/svg">
<g >
<path d="M30.2941 6.74504C30.2941 4.12864 28.2139 2 25.6569 2H9.63725C7.08018 2 5 4.12864 5 6.74504V20.1178H30.2941V6.74504Z" />
<path d="M46.7353 9.76461H45.4706V7.60777C45.4706 6.89308 44.9044 6.31367 44.2059 6.31367C43.5073 6.31367 42.9412 6.89308 42.9412 7.60777V9.76461H40.4118V7.60777C40.4118 6.89308 39.8456 6.31367 39.1471 6.31367C38.4485 6.31367 37.8824 6.89308 37.8824 7.60777V9.76461H36.6176C35.9191 9.76461 35.3529 10.344 35.3529 11.0587V13.6472C35.3529 17.215 38.1896 20.1178 41.6765 20.1178C45.1633 20.1178 48 17.215 48 13.6472V11.0587C48 10.344 47.4338 9.76461 46.7353 9.76461Z" />
<path fill-rule="evenodd" clip-rule="evenodd" d="M40.4118 22.6125V38.6668C40.4118 39.8565 39.4665 40.8236 38.3039 40.8236H37.4608C36.2982 40.8236 35.3529 39.8565 35.3529 38.6668V30.0391C35.3529 27.4223 33.2728 25.294 30.7157 25.294H30.2941V22.7058H5V44.7059C5 45.4206 5.56615 46 6.26471 46H29.0294C29.728 46 30.2941 45.4206 30.2941 44.7059V27.8822H30.7157C31.8783 27.8822 32.8235 28.8494 32.8235 30.0391V38.6664C32.8235 41.2832 34.9037 43.4118 37.4608 43.4118H38.3039C40.861 43.4118 42.9412 41.2832 42.9412 38.6664V22.6125C42.1339 22.734 41.2575 22.7397 40.4118 22.6125ZM18.6756 27.6667V32.3476H23.3523L17.1649 41.4168V36.6628H12.5601L18.6756 27.6667Z" />
</g>
</svg>
