<svg viewBox="0 0 47 49" fill="currentColor" xmlns="http://www.w3.org/2000/svg">
<path fill-rule="evenodd" clip-rule="evenodd" d="M23.2332 1.90616C23.2332 1.12959 22.6036 0.5 21.827 0.5H5.28116C4.50459 0.5 3.875 1.12959 3.875 1.90616V6.12466H23.2332V1.90616Z" />
<path fill-rule="evenodd" clip-rule="evenodd" d="M0.03125 47.0914C0.03125 47.8679 0.660837 48.4975 1.43742 48.4975H7.15582V38.5674H0.03125V47.0914Z" />
<path fill-rule="evenodd" clip-rule="evenodd" d="M9.96875 38.5674H17.1402V48.4975H9.96875V38.5674Z" />
<path fill-rule="evenodd" clip-rule="evenodd" d="M45.0528 30.8721H45.052L28.4125 30.8796C27.3549 30.88 26.4922 31.7422 26.4922 32.7999V35.966C26.4922 36.9159 27.1767 37.6692 28.1062 37.8618L35.3261 39.3582V39.1913C35.3261 38.4147 35.9557 37.7852 36.7323 37.7852C37.5088 37.7852 38.1384 38.4147 38.1384 39.1913V39.3787L45.3584 37.8543C46.2871 37.6583 46.9724 36.9078 46.9724 35.9585V32.7924C46.9723 31.7357 46.1102 30.872 45.0528 30.8721Z" />
<path fill-rule="evenodd" clip-rule="evenodd" d="M27.0765 10.3427C27.0765 9.56611 26.4469 8.93652 25.6703 8.93652H1.43742C0.660837 8.93652 0.03125 9.56611 0.03125 10.3427V35.7541C0.03125 35.7541 23.5936 35.7631 23.6812 35.7794L23.6813 32.7992C23.6813 30.6547 25.1164 28.8395 27.0765 28.2605V10.3427ZM7.48392 32.1851H7.0152C6.23862 32.1851 5.60904 31.5555 5.60904 30.7789C5.60904 30.0024 6.23862 29.3728 7.0152 29.3728H7.48392C8.2605 29.3728 8.89009 30.0024 8.89009 30.7789C8.89009 31.5555 8.2605 32.1851 7.48392 32.1851ZM7.48392 26.5605H7.0152C6.23862 26.5605 5.60904 25.9309 5.60904 25.1543C5.60904 24.3777 6.23862 23.7481 7.0152 23.7481H7.48392C8.2605 23.7481 8.89009 24.3777 8.89009 25.1543C8.89009 25.9309 8.2605 26.5605 7.48392 26.5605ZM7.48392 20.9358H7.0152C6.23862 20.9358 5.60904 20.3062 5.60904 19.5296C5.60904 18.7531 6.23862 18.1235 7.0152 18.1235H7.48392C8.2605 18.1235 8.89009 18.7531 8.89009 19.5296C8.89009 20.3062 8.2605 20.9358 7.48392 20.9358ZM7.48392 15.311H7.0152C6.23862 15.311 5.60904 14.6815 5.60904 13.9049C5.60904 13.1283 6.23862 12.4987 7.0152 12.4987H7.48392C8.2605 12.4987 8.89009 13.1283 8.89009 13.9049C8.89009 14.6815 8.2605 15.311 7.48392 15.311ZM13.7882 32.1851H13.3195C12.5429 32.1851 11.9133 31.5555 11.9133 30.7789C11.9133 30.0024 12.5429 29.3728 13.3195 29.3728H13.7882C14.5648 29.3728 15.1944 30.0024 15.1944 30.7789C15.1944 31.5555 14.5648 32.1851 13.7882 32.1851ZM13.7882 26.5605H13.3195C12.5429 26.5605 11.9133 25.9309 11.9133 25.1543C11.9133 24.3777 12.5429 23.7481 13.3195 23.7481H13.7882C14.5648 23.7481 15.1944 24.3777 15.1944 25.1543C15.1944 25.9309 14.5648 26.5605 13.7882 26.5605ZM13.7882 20.9358H13.3195C12.5429 20.9358 11.9133 20.3062 11.9133 19.5296C11.9133 18.7531 12.5429 18.1235 13.3195 18.1235H13.7882C14.5648 18.1235 15.1944 18.7531 15.1944 19.5296C15.1944 20.3062 14.5648 20.9358 13.7882 20.9358ZM13.7882 15.311H13.3195C12.5429 15.311 11.9133 14.6815 11.9133 13.9049C11.9133 13.1283 12.5429 12.4987 13.3195 12.4987H13.7882C14.5648 12.4987 15.1944 13.1283 15.1944 13.9049C15.1944 14.6815 14.5648 15.311 13.7882 15.311ZM20.0457 32.1851H19.5769C18.8004 32.1851 18.1708 31.5555 18.1708 30.7789C18.1708 30.0024 18.8004 29.3728 19.5769 29.3728H20.0457C20.8222 29.3728 21.4518 30.0024 21.4518 30.7789C21.4518 31.5555 20.8222 32.1851 20.0457 32.1851ZM20.0457 26.5605H19.5769C18.8004 26.5605 18.1708 25.9309 18.1708 25.1543C18.1708 24.3777 18.8004 23.7481 19.5769 23.7481H20.0457C20.8222 23.7481 21.4518 24.3777 21.4518 25.1543C21.4518 25.9309 20.8222 26.5605 20.0457 26.5605ZM20.0457 20.9358H19.5769C18.8004 20.9358 18.1708 20.3062 18.1708 19.5296C18.1708 18.7531 18.8004 18.1235 19.5769 18.1235H20.0457C20.8222 18.1235 21.4518 18.7531 21.4518 19.5296C21.4518 20.3062 20.8222 20.9358 20.0457 20.9358ZM20.0457 15.311H19.5769C18.8004 15.311 18.1708 14.6815 18.1708 13.9049C18.1708 13.1283 18.8004 12.4987 19.5769 12.4987H20.0457C20.8222 12.4987 21.4518 13.1283 21.4518 13.9049C21.4518 14.6815 20.8222 15.311 20.0457 15.311Z"/>
<path fill-rule="evenodd" clip-rule="evenodd" d="M34.4373 27.2176C34.4373 26.9127 34.6949 26.6551 34.9998 26.6551H38.4684C38.7733 26.6551 39.0308 26.9127 39.0308 27.2176V28.0627L41.8431 28.0614V27.2176C41.8431 25.3567 40.3293 23.8428 38.4684 23.8428H34.9998C33.1389 23.8428 31.625 25.3567 31.625 27.2176V28.066L34.4373 28.0647V27.2176Z" />
<path fill-rule="evenodd" clip-rule="evenodd" d="M38.1169 42.2578C38.0031 42.9202 37.4274 43.4248 36.7325 43.4248C36.0295 43.4248 35.4486 42.9082 35.3447 42.2343L27.5358 40.6159C27.1686 40.5398 26.8196 40.4256 26.4922 40.2785V46.7718C26.4922 47.7185 27.2721 48.4969 28.2176 48.4973L45.2516 48.5004H45.2525C46.1976 48.5004 46.9727 47.7245 46.9727 46.7793V40.2695C46.6484 40.4157 46.3029 40.5295 45.9396 40.6062L38.1169 42.2578Z" />
<path fill-rule="evenodd" clip-rule="evenodd" d="M19.9531 48.4975H23.6822L23.6823 38.5469C23.6075 38.5592 19.9531 38.5673 19.9531 38.5673V48.4975Z" />
</svg>
