<svg viewBox="0 0 93 40" fill="none" xmlns="http://www.w3.org/2000/svg">
<path d="M82.156 5.85918H73.2708V0.429688H92.1661V4.92172L86.6301 13.6844V13.7886H92.5957V19.2181H73.1406L82.156 5.85918Z" fill="#14DD7C"/>
<path d="M54.6094 19.2181V0.429688H69.5028L61.1565 13.8146H70.7183V19.2181H54.6094Z" fill="#14DD7C"/>
<path d="M38.8329 19.6217C36.0552 19.6217 33.6377 19.2224 31.5805 18.4238C29.5233 17.6253 27.9305 16.4925 26.802 15.0255C25.6736 13.5586 25.1094 11.8268 25.1094 9.83038V9.80434C25.1094 7.80789 25.6736 6.07618 26.802 4.60921C27.9305 3.13357 29.5233 1.99646 31.5805 1.19788C33.6377 0.399292 36.0552 0 38.8329 0C41.6105 0 44.0236 0.399292 46.0722 1.19788C48.1294 1.99646 49.7222 3.13357 50.8507 4.60921C51.9878 6.07618 52.5563 7.80789 52.5563 9.80434V9.83038C52.5563 11.8268 51.9878 13.5586 50.8507 15.0255C49.7222 16.4925 48.1294 17.6253 46.0722 18.4238C44.0236 19.2224 41.6105 19.6217 38.8329 19.6217ZM38.8329 14.1401C40.0481 14.1401 41.0984 13.9709 41.9838 13.6323C42.8779 13.2851 43.5636 12.786 44.041 12.135C44.5271 11.484 44.7701 10.7158 44.7701 9.83038V9.80434C44.7701 8.91896 44.5271 8.1551 44.041 7.51276C43.5636 6.86174 42.8779 6.36262 41.9838 6.01541C41.0984 5.6682 40.0481 5.4946 38.8329 5.4946C37.6089 5.4946 36.5499 5.6682 35.6559 6.01541C34.7705 6.36262 34.0891 6.86174 33.6117 7.51276C33.1343 8.1551 32.8956 8.91896 32.8956 9.80434V9.83038C32.8956 10.7158 33.1343 11.484 33.6117 12.135C34.0891 12.786 34.7705 13.2851 35.6559 13.6323C36.5499 13.9709 37.6089 14.1401 38.8329 14.1401Z" fill="#14DD7C"/>
<path d="M3.85403 19.2181V14.4526H14.4005C14.9561 14.4526 15.3814 14.3398 15.6765 14.1141C15.9803 13.8797 16.1322 13.5455 16.1322 13.1115V13.0985C16.1322 12.7947 16.0628 12.543 15.9239 12.3433C15.785 12.1437 15.5811 11.9961 15.312 11.9006C15.0516 11.8052 14.7304 11.7574 14.3485 11.7574H3.85403V7.76016H13.6714C14.2269 7.76016 14.6523 7.65166 14.9474 7.43465C15.2512 7.21764 15.4031 6.90515 15.4031 6.49718V6.47114C15.4031 6.06317 15.2599 5.75068 14.9734 5.53367C14.6957 5.30799 14.292 5.19514 13.7625 5.19514H3.85403V0.429688H16.0281C17.5211 0.429688 18.7797 0.607633 19.804 0.963523C20.8369 1.31073 21.6182 1.82287 22.1477 2.49993C22.6858 3.16831 22.9549 3.98425 22.9549 4.94776V4.9738C22.9549 5.77238 22.79 6.45812 22.4602 7.03102C22.1303 7.60391 21.6485 8.07265 21.0149 8.43722C20.3899 8.80179 19.626 9.0622 18.7233 9.21844V9.30958C19.8517 9.44847 20.7935 9.7219 21.5487 10.1299C22.3126 10.5292 22.8855 11.05 23.2674 11.6923C23.658 12.3347 23.8533 13.0812 23.8533 13.9318V13.9579C23.8533 15.095 23.5539 16.0541 22.9549 16.8354C22.356 17.6166 21.4836 18.2112 20.3378 18.6192C19.2007 19.0184 17.8206 19.2181 16.1973 19.2181H3.85403ZM0 19.2181V0.429688H7.49974V19.2181H0Z" fill="#14DD7C"/>
<path d="M36.8047 39.7989V27.2051H38.2884V33.0874H38.3233C38.684 32.2787 39.2775 31.6386 40.1037 31.1674C40.9357 30.6961 41.919 30.4604 43.0536 30.4604C44.0718 30.4604 44.9416 30.6466 45.6631 31.019C46.3846 31.3914 46.9344 31.9296 47.3126 32.6336C47.6966 33.3318 47.8886 34.1783 47.8886 35.1733V39.7989H46.3962V35.4002C46.3962 34.19 46.0733 33.2649 45.4275 32.6249C44.7816 31.979 43.8507 31.6561 42.6347 31.6561C41.7561 31.6561 40.991 31.8219 40.3393 32.1536C39.6877 32.4852 39.1815 32.9536 38.8207 33.5587C38.4658 34.158 38.2884 34.8649 38.2884 35.6795V39.7989H36.8047Z" fill="white"/>
<path d="M29.7798 39.9909C28.5812 39.9909 27.531 39.796 26.6292 39.4061C25.7273 39.0105 25.0233 38.4577 24.5171 37.7479C24.0109 37.0323 23.7578 36.1944 23.7578 35.2344V35.2169C23.7578 34.2627 24.0109 33.4307 24.5171 32.7209C25.0233 32.0052 25.7273 31.4496 26.6292 31.0539C27.531 30.6583 28.5812 30.4604 29.7798 30.4604C30.8329 30.4604 31.758 30.603 32.5551 30.8881C33.3522 31.1732 33.9981 31.5718 34.4926 32.0838C34.993 32.5958 35.3276 33.1951 35.4963 33.8816L35.5138 33.9689H34.0301L34.0039 33.8991C33.7479 33.2009 33.2679 32.6481 32.5639 32.2409C31.8598 31.8336 30.9464 31.6299 29.8234 31.6299C28.9041 31.6299 28.1012 31.7754 27.4146 32.0663C26.7339 32.3572 26.2044 32.7732 25.8262 33.3143C25.4539 33.8496 25.2677 34.4838 25.2677 35.2169V35.2344C25.2677 35.9733 25.4539 36.6133 25.8262 37.1544C26.2044 37.6897 26.7339 38.1028 27.4146 38.3937C28.1012 38.6847 28.9041 38.8301 29.8234 38.8301C30.9464 38.8301 31.8598 38.6265 32.5639 38.2192C33.2679 37.8119 33.7479 37.2563 34.0039 36.5522L34.0301 36.4824H35.5138L35.4963 36.5697C35.3276 37.2621 34.993 37.8643 34.4926 38.3763C33.9923 38.8883 33.3435 39.2869 32.5464 39.572C31.7551 39.8512 30.8329 39.9909 29.7798 39.9909Z" fill="white"/>
<path d="M17.1672 39.9998C15.9046 39.9998 14.8195 39.8136 13.9118 39.4412C13.0042 39.0689 12.3089 38.5278 11.8259 37.8179C11.343 37.1023 11.1016 36.2412 11.1016 35.2346V35.2259C11.1016 34.2542 11.3488 33.4134 11.8434 32.7036C12.3438 31.988 13.0391 31.4352 13.9293 31.0454C14.8195 30.6556 15.861 30.4635 17.0537 30.4694C18.2581 30.4752 19.2967 30.6788 20.1694 31.0803C21.0422 31.4759 21.7142 32.0316 22.1855 32.7472C22.6568 33.4571 22.8924 34.2891 22.8924 35.2433V35.5575H11.8609V34.58H21.9237L21.4611 35.3131V35.0164C21.4611 34.3356 21.2836 33.7393 20.9287 33.2273C20.5796 32.7152 20.0763 32.3138 19.4189 32.0229C18.7614 31.7319 17.9759 31.5865 17.0624 31.5865C16.1199 31.5865 15.3111 31.729 14.6362 32.0141C13.9671 32.2934 13.4551 32.6978 13.1002 33.2273C12.7452 33.7567 12.5678 34.3967 12.5678 35.1473V35.2608C12.5678 36.1161 12.7685 36.8084 13.17 37.3379C13.5773 37.8674 14.13 38.2572 14.8282 38.5074C15.5322 38.7518 16.3264 38.8739 17.2108 38.8739C17.8334 38.8739 18.4094 38.8129 18.9389 38.6907C19.4683 38.5685 19.9309 38.3852 20.3265 38.1408C20.728 37.8906 21.0335 37.5677 21.2429 37.1721L21.2691 37.111H22.7353L22.7091 37.1895C22.5171 37.6783 22.2437 38.1001 21.8887 38.455C21.5396 38.8041 21.1236 39.0921 20.6407 39.319C20.1578 39.546 19.6225 39.7147 19.0349 39.8252C18.453 39.9416 17.8305 39.9998 17.1672 39.9998Z" fill="white"/>
<path d="M8.88775 39.9472C7.67754 39.9472 6.77279 39.6999 6.1735 39.2054C5.57421 38.705 5.27457 37.9515 5.27457 36.945V31.7783H2.80469V30.6612H5.27457V28.2437H6.75824V30.6612H10.6594V31.7783H6.75824V36.7617C6.75824 37.4773 6.95316 38.001 7.34299 38.3326C7.73281 38.6643 8.34665 38.8301 9.18449 38.8301C9.42886 38.8301 9.68486 38.8156 9.95251 38.7865C10.2202 38.7574 10.4558 38.7196 10.6594 38.673V39.7727C10.4034 39.825 10.1212 39.8658 9.81287 39.8949C9.5045 39.9298 9.19612 39.9472 8.88775 39.9472Z" fill="white"/>
<path d="M1.91913 39.9033C1.65149 39.9033 1.42748 39.816 1.24711 39.6414C1.06675 39.4669 0.976562 39.2545 0.976562 39.0043C0.976562 38.7483 1.06675 38.5331 1.24711 38.3585C1.42748 38.184 1.65149 38.0967 1.91913 38.0967C2.18096 38.0967 2.40205 38.184 2.58242 38.3585C2.76279 38.5331 2.85297 38.7483 2.85297 39.0043C2.85297 39.2545 2.76279 39.4669 2.58242 39.6414C2.40205 39.816 2.18096 39.9033 1.91913 39.9033Z" fill="white"/>
</svg>
