<svg xmlns="http://www.w3.org/2000/svg" viewBox="0 0 151 32" fill="none">
<path d="M133.984 9.55585H119.494V0.701172H150.309V8.02698L141.28 22.3176V22.4875H151.01V31.3422H119.281L133.984 9.55585Z" fill="#14DD7C"/>
<path d="M89.0547 31.3422V0.701172H113.344L99.732 22.53H115.326V31.3422H89.0547Z" fill="#14DD7C"/>
<path d="M63.3184 32C58.7884 32 54.8459 31.3488 51.4909 30.0464C48.1359 28.7441 45.5383 26.8967 43.698 24.5043C41.8576 22.1119 40.9375 19.2878 40.9375 16.0319V15.9894C40.9375 12.7335 41.8576 9.90931 43.698 7.51692C45.5383 5.11037 48.1359 3.25592 51.4909 1.95355C54.8459 0.651184 58.7884 0 63.3184 0C67.8484 0 71.7838 0.651184 75.1246 1.95355C78.4796 3.25592 81.0773 5.11037 82.9176 7.51692C84.7721 9.90931 85.6993 12.7335 85.6993 15.9894V16.0319C85.6993 19.2878 84.7721 22.1119 82.9176 24.5043C81.0773 26.8967 78.4796 28.7441 75.1246 30.0464C71.7838 31.3488 67.8484 32 63.3184 32ZM63.3184 23.0604C65.3003 23.0604 67.0132 22.7843 68.4571 22.2323C69.9152 21.666 71.0335 20.852 71.8121 19.7903C72.6048 18.7286 73.0012 17.4758 73.0012 16.0319V15.9894C73.0012 14.5455 72.6048 13.2997 71.8121 12.2522C71.0335 11.1904 69.9152 10.3765 68.4571 9.81022C67.0132 9.24397 65.3003 8.96085 63.3184 8.96085C61.3224 8.96085 59.5953 9.24397 58.1372 9.81022C56.6933 10.3765 55.582 11.1904 54.8035 12.2522C54.0249 13.2997 53.6356 14.5455 53.6356 15.9894V16.0319C53.6356 17.4758 54.0249 18.7286 54.8035 19.7903C55.582 20.852 56.6933 21.666 58.1372 22.2323C59.5953 22.7843 61.3224 23.0604 63.3184 23.0604Z" fill="#14DD7C"/>
<path d="M6.28534 31.3422V23.5704H23.4851C24.3911 23.5704 25.0847 23.3864 25.566 23.0184C26.0615 22.6361 26.3092 22.0911 26.3092 21.3833V21.3621C26.3092 20.8666 26.196 20.4561 25.9695 20.1305C25.743 19.8049 25.4103 19.5643 24.9715 19.4085C24.5468 19.2528 24.023 19.175 23.4001 19.175H6.28534V12.656H22.296C23.2019 12.656 23.8956 12.4791 24.3769 12.1252C24.8724 11.7713 25.1201 11.2617 25.1201 10.5963V10.5539C25.1201 9.88852 24.8865 9.3789 24.4194 9.02499C23.9664 8.65693 23.3081 8.4729 22.4446 8.4729H6.28534V0.701172H26.1393C28.5742 0.701172 30.6269 0.991373 32.2973 1.57178C33.9819 2.13802 35.2559 2.97324 36.1194 4.07742C36.9971 5.16744 37.436 6.49812 37.436 8.06945V8.11192C37.436 9.41429 37.167 10.5326 36.6291 11.4669C36.0911 12.4012 35.3055 13.1657 34.2721 13.7602C33.2528 14.3548 32.0071 14.7795 30.5348 15.0343V15.1829C32.3751 15.4094 33.9111 15.8553 35.1427 16.5207C36.3884 17.1719 37.3227 18.0212 37.9456 19.0688C38.5826 20.1163 38.9011 21.3338 38.9011 22.7211V22.7635C38.9011 24.618 38.4127 26.1823 37.436 27.4563C36.4592 28.7304 35.0365 29.7001 33.1679 30.3654C31.3134 31.0166 29.0626 31.3422 26.4154 31.3422H6.28534ZM0 31.3422V0.701172H12.2309V31.3422H0Z" fill="#14DD7C"/>
</svg>