<svg width="20" height="21" viewBox="0 0 20 21" fill="none" xmlns="http://www.w3.org/2000/svg">
<g opacity="0.3">
<path d="M16.5625 3.8327H3.4375C2.85753 3.83332 2.30149 4.06399 1.89139 4.47409C1.48129 4.88419 1.25062 5.44023 1.25 6.0202V15.3952C1.25062 15.9752 1.48129 16.5312 1.89139 16.9413C2.30149 17.3514 2.85753 17.5821 3.4375 17.5827H16.5625C17.1425 17.5821 17.6985 17.3514 18.1086 16.9413C18.5187 16.5312 18.7494 15.9752 18.75 15.3952V6.0202C18.7494 5.44023 18.5187 4.88419 18.1086 4.47409C17.6985 4.06399 17.1425 3.83332 16.5625 3.8327ZM16.0086 7.45106L10.3836 11.8261C10.2739 11.9113 10.1389 11.9576 10 11.9576C9.86107 11.9576 9.72609 11.9113 9.61641 11.8261L3.99141 7.45106C3.92532 7.40115 3.86981 7.33861 3.8281 7.26706C3.78639 7.19551 3.75932 7.11639 3.74846 7.03429C3.73759 6.95219 3.74315 6.86875 3.76482 6.78881C3.78648 6.70888 3.82381 6.63405 3.87465 6.56867C3.92548 6.50329 3.9888 6.44867 4.06093 6.40797C4.13306 6.36728 4.21255 6.34132 4.2948 6.33161C4.37704 6.3219 4.4604 6.32864 4.54002 6.35143C4.61964 6.37421 4.69394 6.41259 4.75859 6.46434L10 10.5409L15.2414 6.46434C15.3725 6.36537 15.5372 6.32196 15.7 6.3435C15.8629 6.36505 16.0107 6.44981 16.1115 6.57947C16.2123 6.70913 16.258 6.87325 16.2387 7.03636C16.2195 7.19946 16.1368 7.34844 16.0086 7.45106Z" fill="white"/>
</g>
</svg>
