<svg viewBox="0 0 24 25" fill="currentColor" xmlns="http://www.w3.org/2000/svg">
<g clip-path="url(#clip0_556_2126)">
<path fill-rule="evenodd" clip-rule="evenodd" d="M22.8484 9.314C22.8634 9.32151 22.8778 9.33007 22.8963 9.33982C23.1035 9.44951 23.2446 9.66716 23.2446 9.91745V12.0661C23.2446 13.1485 22.5043 14.0609 21.5034 14.3242V20.2757C21.5034 22.6049 19.7418 24.4998 17.5766 24.4998H12.6325C10.8938 24.4998 9.13585 23.4328 8.77329 21.7139H4.20175C3.22886 21.7139 2.4375 20.9226 2.4375 19.9497V4.06405C2.4375 3.09117 3.22886 2.2998 4.20175 2.2998H14.5156C15.4885 2.2998 16.2799 3.09117 16.2799 4.06405V19.9497C16.2799 20.9226 15.4885 21.7139 14.5156 21.7139H10.1331C10.4929 22.6423 11.5961 23.1939 12.6325 23.1939H17.5766C19.0218 23.1939 20.1975 21.8848 20.1975 20.2757V14.3242C19.1966 14.061 18.4563 13.1486 18.4563 12.0661V9.91745C18.4563 9.55703 18.7488 9.26451 19.1093 9.26451C22.5415 9.26345 22.7157 9.24742 22.8484 9.314ZM7.26926 17.6222C6.90884 17.6222 6.61632 17.9147 6.61632 18.2751C6.61632 18.6355 6.90884 18.928 7.26926 18.928H11.4481C11.8085 18.928 12.101 18.6355 12.101 18.2751C12.101 17.9147 11.8085 17.6222 11.4481 17.6222H7.26926ZM9.86312 6.25V8.9734H12.6292L8.96959 14.25V11.484H6.24609L9.86312 6.25Z" />
<path d="M22.8965 7.13146C22.8965 6.77103 22.6039 6.47852 22.2435 6.47852H19.4576C19.0972 6.47852 18.8047 6.77103 18.8047 7.13146V7.95852H22.8965V7.13146Z" />
</g>
<defs>
<clipPath id="clip0_556_2126">
<rect width="24" height="24" transform="translate(0 0.5)"/>
</clipPath>
</defs>
</svg>
