<svg viewBox="0 0 49 49" fill="currentColor" xmlns="http://www.w3.org/2000/svg">
<g clip-path="url(#clip0_4024_824)">
<path d="M40.7876 33.2859L41.1976 36.5638C39.2917 37.3598 37.9486 39.2429 37.9486 41.4341C37.9486 44.3431 40.3153 46.7098 43.2243 46.7098C46.1333 46.7098 48.5 44.3431 48.5 41.4341C48.5 38.7847 46.5367 36.5859 43.9887 36.2144L40.2734 6.51531C39.972 4.10652 37.9142 2.29004 35.4866 2.29004H31.2614V5.10295H35.4866C36.4986 5.10295 37.3566 5.86028 37.4823 6.86449L40.3453 29.7502L33.6249 36.4707H15.1685C13.3831 33.1058 9.84299 30.8084 5.77571 30.8084V33.6213C10.0837 33.6213 13.5886 37.1261 13.5886 41.4341V42.0603H11.013C11.0374 41.8548 11.0514 41.6461 11.0514 41.4341C11.0514 38.5251 8.68473 36.1584 5.77571 36.1584C2.86669 36.1584 0.5 38.525 0.5 41.4341C0.5 44.3432 2.86669 46.7099 5.77571 46.7099C7.37157 46.7099 8.80315 45.9966 9.77136 44.8732H29.2002L40.7876 33.2859Z" />
</g>
<defs>
<clipPath id="clip0_4024_824">
<rect width="48" height="48" transform="translate(0.5 0.5)"/>
</clipPath>
</defs>
</svg>