<svg width="20" height="21" viewBox="0 0 20 21" fill="none" xmlns="http://www.w3.org/2000/svg">
<g opacity="0.3" clip-path="url(#clip0_4076_1110)">
<path fill-rule="evenodd" clip-rule="evenodd" d="M16.4828 4.39934C16.6888 4.31267 16.9142 4.28277 17.1356 4.31277C17.357 4.34277 17.5663 4.43156 17.7417 4.56991C17.9172 4.70826 18.0523 4.8911 18.1331 5.09941C18.2139 5.30772 18.2374 5.53387 18.2012 5.75434L16.3112 17.2185C16.1278 18.3243 14.9145 18.9585 13.9003 18.4077C13.052 17.9468 11.792 17.2368 10.6587 16.496C10.092 16.1252 8.35616 14.9377 8.56949 14.0927C8.75282 13.3702 11.6695 10.6552 13.3362 9.04101C13.9903 8.40684 13.692 8.04101 12.9195 8.62434C11.0012 10.0727 7.92116 12.2752 6.90282 12.8952C6.00449 13.4418 5.53616 13.5352 4.97616 13.4418C3.95449 13.2718 3.00699 13.0085 2.23366 12.6877C1.18866 12.2543 1.23949 10.8177 2.23282 10.3993L16.4828 4.39934Z" fill="white"/>
</g>
<defs>
<clipPath id="clip0_4076_1110">
<rect width="20" height="20" fill="white" transform="translate(0 0.707703)"/>
</clipPath>
</defs>
</svg>
