<svg viewBox="0 0 49 43" fill="currentColor" xmlns="http://www.w3.org/2000/svg">
<path d="M21.6897 22.895V12.3838H16.1209L10.3047 22.895H21.6897Z" />
<path d="M40.4133 40.4496C42.8406 39.4435 43.9926 36.6602 42.9865 34.233C41.9804 31.8057 39.1972 30.6536 36.7699 31.6597C34.3427 32.6658 33.1906 35.4491 34.1967 37.8764C35.2028 40.3036 37.9861 41.4557 40.4133 40.4496Z" />
<path d="M9.02984 40.8185C11.6567 40.8185 13.7863 38.689 13.7863 36.0621C13.7863 33.4352 11.6567 31.3057 9.02984 31.3057C6.40295 31.3057 4.27344 33.4352 4.27344 36.0621C4.27344 38.689 6.40295 40.8185 9.02984 40.8185Z" />
<path d="M44.5529 25.7079H5.53109L12.8976 12.3823V9.49195H25.8158V12.3813L25.8167 12.3832V12.3841H24.4995V22.8954H42.2417L32.457 12.3841H28.6273V12.3832L28.6283 12.3813V9.49195H41.7964V6.16758L33.6852 0.181641H6.47422C3.93716 0.181641 1.81953 2.30873 1.81953 4.83727C1.81953 7.3882 3.94316 9.49195 6.47422 9.49195H10.0349V12.3823H7.47734L0.5 23.1316V35.9116H1.46234C1.54297 31.8073 4.90672 28.4932 9.02891 28.4932C13.152 28.4932 16.5158 31.8073 16.5964 35.9116H31.0048C31.0855 31.8073 34.4492 28.4932 38.5723 28.4932C42.6945 28.4932 46.0583 31.8073 46.1389 35.9116H48.5V29.6545C48.4998 27.4748 46.7326 25.7079 44.5529 25.7079Z" />
</svg>
