<svg viewBox="0 0 142 44" fill="none" xmlns="http://www.w3.org/2000/svg">
<g clip-path="url(#clip0_603_10316)">
<mask id="mask0_603_10316" style="mask-type:luminance" maskUnits="userSpaceOnUse" x="0" y="0" width="142" height="44">
<path d="M142 0H0V44H142V0Z" fill="white"/>
</mask>
<g mask="url(#mask0_603_10316)">
<path d="M44.3121 0H0V44H44.3121V0Z" fill="#FF0032"/>
<path d="M29.5234 3.35352V5.40624H33.977V13.4372L33.9779 13.5694H36.4713V5.40624H40.9247V3.35352H29.5234Z" fill="white"/>
<path d="M13.4849 3.38403L10.2276 10.0992L6.9704 3.38403H3.41406V13.5379H5.90731V6.27099L9.09116 12.4102H11.3642L14.549 6.27099V13.5379H17.0422V3.38403H13.4849Z" fill="white"/>
<path d="M38.4216 37.2293C38.3751 37.6043 38.203 37.9529 37.9331 38.2192C37.6527 38.4726 37.308 38.6452 36.9361 38.7186C36.3928 38.8255 35.8396 38.8753 35.2857 38.8671C34.696 38.8776 34.1085 38.7922 33.5466 38.6142C33.0859 38.4657 32.6886 38.1682 32.4181 37.7692C32.1463 37.3697 32.0122 36.7928 32.0122 36.0593V35.0191C32.0122 34.2802 32.1491 33.7034 32.4181 33.3038C32.688 32.9057 33.0843 32.6085 33.5438 32.4597C34.1058 32.2817 34.6933 32.1963 35.2831 32.2068C35.8369 32.1986 36.3901 32.2484 36.9334 32.3553C37.3052 32.4289 37.6499 32.6015 37.9303 32.8547C38.2002 33.121 38.3723 33.4696 38.4188 33.8446H40.914C40.8688 33.0636 40.5688 32.3184 40.0592 31.7217C39.5568 31.173 38.9063 30.7788 38.185 30.5861C37.2391 30.3382 36.263 30.2222 35.2848 30.2413C34.0894 30.2413 33.0526 30.4124 32.2033 30.7489C31.3633 31.07 30.6595 31.6675 30.2096 32.4416C29.77 33.1913 29.5388 34.192 29.5234 35.4186V35.5311V35.5365V35.6489C29.5388 36.8755 29.77 37.8763 30.2096 38.626C30.6595 39.4001 31.3633 39.9975 32.2034 40.3187C33.0535 40.6553 34.0913 40.8262 35.2848 40.8262C36.263 40.8458 37.2392 40.7298 38.185 40.4816C38.9066 40.2894 39.5573 39.8952 40.0592 39.3458C40.569 38.7492 40.869 38.004 40.914 37.2229L38.4216 37.2293Z" fill="white"/>
<path d="M60.7886 15.2V20.76H63.0646C63.1855 19.6933 63.4406 18.7933 63.83 18.06C64.2195 17.3267 64.7432 16.7333 65.4011 16.28C66.0725 15.8133 66.8714 15.48 67.798 15.28C68.7245 15.0667 69.7719 14.96 70.9401 14.96C72.2292 14.96 73.3639 15.0867 74.3441 15.34C75.3378 15.58 76.1702 15.98 76.8417 16.54C77.5131 17.1 78.0166 17.84 78.3523 18.76C78.7015 19.6667 78.876 20.78 78.876 22.1C78.876 23.4067 78.7015 24.5133 78.3523 25.42C78.0166 26.3133 77.5131 27.0467 76.8417 27.62C76.1702 28.1933 75.3378 28.6067 74.3441 28.86C73.3639 29.1133 72.2292 29.24 70.9401 29.24C69.7316 29.24 68.6507 29.1267 67.6973 28.9C66.7438 28.6733 65.9315 28.3133 65.2601 27.82C64.6022 27.3133 64.0851 26.6667 63.7092 25.88C63.3332 25.08 63.1049 24.1133 63.0244 22.98H60.7886V29H57.9688V15.2H60.7886ZM76.0158 21.44C76.0158 19.8933 75.5929 18.7933 74.7469 18.14C73.9009 17.4733 72.632 17.14 70.9401 17.14C69.2482 17.14 67.9792 17.4733 67.1333 18.14C66.2873 18.7933 65.8644 19.9 65.8644 21.46V22.68C65.8644 24.2667 66.2873 25.3933 67.1333 26.06C67.9792 26.7267 69.2482 27.06 70.9401 27.06C72.632 27.06 73.9009 26.7267 74.7469 26.06C75.5929 25.3933 76.0158 24.2667 76.0158 22.68V21.44ZM90.1178 15.2C91.7426 15.2 92.931 15.5933 93.683 16.38C94.4483 17.1533 94.831 18.2467 94.831 19.66C94.831 21.0867 94.4483 22.1933 93.683 22.98C92.931 23.7667 91.7426 24.16 90.1178 24.16H84.176V29H81.3561V15.2H90.1178ZM91.991 19.4C91.991 18.8 91.8164 18.3133 91.4674 17.94C91.1182 17.5667 90.5408 17.38 89.7352 17.38H84.176V21.98H89.7352C90.5408 21.98 91.1182 21.8 91.4674 21.44C91.8164 21.0667 91.991 20.58 91.991 19.98V19.4ZM108.938 15.2V17.38H99.8331V20.9H106.843V23H99.8331V26.82H109.018V29H97.0132V15.2H108.938ZM114.251 15.2V20.78H122.489V15.2H125.309V29H122.489V23.06H114.251V29H111.431V15.2H114.251ZM127.177 17.48V15.2H141.357V17.48H135.677V29H132.857V17.48H127.177Z" fill="black"/>
</g>
</g>
<defs>
<clipPath id="clip0_603_10316">
<rect width="142" height="44" fill="white"/>
</clipPath>
</defs>
</svg>
